<mxfile host="app.diagrams.net" agent="Mozilla/5.0 (Windows NT 10.0; Win64; x64) AppleWebKit/537.36 (KHTML, like Gecko) Chrome/130.0.0.0 Safari/537.36" version="24.8.6">
  <diagram name="Page-1" id="c7488fd3-1785-93aa-aadb-54a6760d102a">
    <mxGraphModel dx="363" dy="593" grid="1" gridSize="10" guides="1" tooltips="1" connect="1" arrows="1" fold="1" page="1" pageScale="1" pageWidth="1100" pageHeight="850" background="none" math="0" shadow="0">
      <root>
        <mxCell id="0" />
        <mxCell id="1" parent="0" />
        <mxCell id="2b4e8129b02d487f-1" value="" style="swimlane;html=1;childLayout=stackLayout;horizontal=1;startSize=20;horizontalStack=0;rounded=0;shadow=0;labelBackgroundColor=none;strokeWidth=1;fontFamily=Verdana;fontSize=8;align=center;" parent="1" vertex="1">
          <mxGeometry x="30" y="70" width="1030" height="320" as="geometry" />
        </mxCell>
        <mxCell id="2b4e8129b02d487f-2" value="&lt;p style=&quot;line-height: 60%;&quot;&gt;&lt;font style=&quot;font-size: 8px;&quot;&gt;Менеджер по дестребуции&amp;nbsp;&lt;br&gt;данных&lt;/font&gt;&lt;/p&gt;" style="swimlane;html=1;startSize=20;horizontal=0;" parent="2b4e8129b02d487f-1" vertex="1">
          <mxGeometry y="20" width="1030" height="150" as="geometry" />
        </mxCell>
        <mxCell id="PiPbr1PfLSAp2xPkQz8O-1" value="&lt;font style=&quot;font-size: 10px;&quot;&gt;Получена информация&lt;br&gt;о введении нового&lt;br&gt;ассортимента&lt;/font&gt;" style="points=[[0.145,0.145,0],[0.5,0,0],[0.855,0.145,0],[1,0.5,0],[0.855,0.855,0],[0.5,1,0],[0.145,0.855,0],[0,0.5,0]];shape=mxgraph.bpmn.event;html=1;verticalLabelPosition=bottom;labelBackgroundColor=#ffffff;verticalAlign=top;align=center;perimeter=ellipsePerimeter;outlineConnect=0;aspect=fixed;outline=standard;symbol=general;" vertex="1" parent="2b4e8129b02d487f-2">
          <mxGeometry x="70" y="60" width="30" height="30" as="geometry" />
        </mxCell>
        <mxCell id="PiPbr1PfLSAp2xPkQz8O-2" value="Заполненеие перечнем и характеристиками товара excel-файла" style="points=[[0.25,0,0],[0.5,0,0],[0.75,0,0],[1,0.25,0],[1,0.5,0],[1,0.75,0],[0.75,1,0],[0.5,1,0],[0.25,1,0],[0,0.75,0],[0,0.5,0],[0,0.25,0]];shape=mxgraph.bpmn.task;whiteSpace=wrap;rectStyle=rounded;size=10;html=1;container=1;expand=0;collapsible=0;taskMarker=abstract;" vertex="1" parent="2b4e8129b02d487f-2">
          <mxGeometry x="150" y="45" width="120" height="60" as="geometry" />
        </mxCell>
        <mxCell id="PiPbr1PfLSAp2xPkQz8O-3" style="edgeStyle=orthogonalEdgeStyle;rounded=0;orthogonalLoop=1;jettySize=auto;html=1;entryX=0;entryY=0.5;entryDx=0;entryDy=0;entryPerimeter=0;" edge="1" parent="2b4e8129b02d487f-2" source="PiPbr1PfLSAp2xPkQz8O-1" target="PiPbr1PfLSAp2xPkQz8O-2">
          <mxGeometry relative="1" as="geometry" />
        </mxCell>
        <mxCell id="PiPbr1PfLSAp2xPkQz8O-4" value="excel шаблон&lt;br&gt;заполненный" style="shape=mxgraph.bpmn.data;labelPosition=right;verticalLabelPosition=middle;align=left;verticalAlign=middle;size=15;html=1;" vertex="1" parent="2b4e8129b02d487f-2">
          <mxGeometry x="290" y="100" width="30" height="40" as="geometry" />
        </mxCell>
        <mxCell id="PiPbr1PfLSAp2xPkQz8O-10" style="edgeStyle=orthogonalEdgeStyle;rounded=0;orthogonalLoop=1;jettySize=auto;html=1;entryX=0;entryY=0.5;entryDx=0;entryDy=0;entryPerimeter=0;dashed=1;dashPattern=1 1;" edge="1" parent="2b4e8129b02d487f-2" source="PiPbr1PfLSAp2xPkQz8O-2" target="PiPbr1PfLSAp2xPkQz8O-4">
          <mxGeometry relative="1" as="geometry">
            <Array as="points">
              <mxPoint x="250" y="120" />
            </Array>
          </mxGeometry>
        </mxCell>
        <mxCell id="PiPbr1PfLSAp2xPkQz8O-11" value="Заполненный excel&lt;br&gt;шоблон отправлен" style="points=[[0.145,0.145,0],[0.5,0,0],[0.855,0.145,0],[1,0.5,0],[0.855,0.855,0],[0.5,1,0],[0.145,0.855,0],[0,0.5,0]];shape=mxgraph.bpmn.event;html=1;verticalLabelPosition=top;labelBackgroundColor=#ffffff;verticalAlign=bottom;align=center;perimeter=ellipsePerimeter;outlineConnect=0;aspect=fixed;outline=standard;symbol=message;labelPosition=center;" vertex="1" parent="2b4e8129b02d487f-2">
          <mxGeometry x="450" y="57.5" width="35" height="35" as="geometry" />
        </mxCell>
        <mxCell id="PiPbr1PfLSAp2xPkQz8O-12" style="edgeStyle=orthogonalEdgeStyle;rounded=0;orthogonalLoop=1;jettySize=auto;html=1;entryX=0;entryY=0.5;entryDx=0;entryDy=0;entryPerimeter=0;" edge="1" parent="2b4e8129b02d487f-2" source="PiPbr1PfLSAp2xPkQz8O-2" target="PiPbr1PfLSAp2xPkQz8O-11">
          <mxGeometry relative="1" as="geometry" />
        </mxCell>
        <mxCell id="2b4e8129b02d487f-3" value="&lt;p style=&quot;line-height: 80%;&quot;&gt;&lt;font style=&quot;font-size: 10px;&quot;&gt;Контент -менеджер&lt;/font&gt;&lt;/p&gt;" style="swimlane;html=1;startSize=20;horizontal=0;" parent="2b4e8129b02d487f-1" vertex="1">
          <mxGeometry y="170" width="1030" height="150" as="geometry" />
        </mxCell>
        <mxCell id="PiPbr1PfLSAp2xPkQz8O-13" value="Добавление товаров&lt;br&gt;в каталог маркетплейса" style="points=[[0.25,0,0],[0.5,0,0],[0.75,0,0],[1,0.25,0],[1,0.5,0],[1,0.75,0],[0.75,1,0],[0.5,1,0],[0.25,1,0],[0,0.75,0],[0,0.5,0],[0,0.25,0]];shape=mxgraph.bpmn.task;whiteSpace=wrap;rectStyle=rounded;size=10;html=1;container=1;expand=0;collapsible=0;taskMarker=abstract;" vertex="1" parent="2b4e8129b02d487f-3">
          <mxGeometry x="407.5" y="50" width="120" height="60" as="geometry" />
        </mxCell>
        <mxCell id="PiPbr1PfLSAp2xPkQz8O-20" value="&lt;font style=&quot;font-size: 10px;&quot;&gt;excel шаблон с&lt;br&gt;корректировками&lt;/font&gt;" style="shape=mxgraph.bpmn.data;labelPosition=right;verticalLabelPosition=middle;align=left;verticalAlign=middle;size=15;html=1;" vertex="1" parent="2b4e8129b02d487f-3">
          <mxGeometry x="580" y="90" width="30" height="40" as="geometry" />
        </mxCell>
        <mxCell id="PiPbr1PfLSAp2xPkQz8O-36" style="edgeStyle=orthogonalEdgeStyle;rounded=0;orthogonalLoop=1;jettySize=auto;html=1;exitX=1;exitY=0.75;exitDx=0;exitDy=0;exitPerimeter=0;entryX=0;entryY=0.5;entryDx=0;entryDy=0;entryPerimeter=0;" edge="1" parent="2b4e8129b02d487f-3" source="PiPbr1PfLSAp2xPkQz8O-13" target="PiPbr1PfLSAp2xPkQz8O-20">
          <mxGeometry relative="1" as="geometry" />
        </mxCell>
        <mxCell id="PiPbr1PfLSAp2xPkQz8O-37" value="Подготовка цен&lt;br&gt;и загрузка&lt;br&gt;прайс-листа" style="points=[[0.25,0,0],[0.5,0,0],[0.75,0,0],[1,0.25,0],[1,0.5,0],[1,0.75,0],[0.75,1,0],[0.5,1,0],[0.25,1,0],[0,0.75,0],[0,0.5,0],[0,0.25,0]];shape=mxgraph.bpmn.task;whiteSpace=wrap;rectStyle=rounded;size=10;html=1;container=1;expand=0;collapsible=0;taskMarker=abstract;" vertex="1" parent="2b4e8129b02d487f-3">
          <mxGeometry x="700" y="50" width="120" height="60" as="geometry" />
        </mxCell>
        <mxCell id="PiPbr1PfLSAp2xPkQz8O-38" style="edgeStyle=orthogonalEdgeStyle;rounded=0;orthogonalLoop=1;jettySize=auto;html=1;entryX=0;entryY=0.5;entryDx=0;entryDy=0;entryPerimeter=0;" edge="1" parent="2b4e8129b02d487f-3" source="PiPbr1PfLSAp2xPkQz8O-13" target="PiPbr1PfLSAp2xPkQz8O-37">
          <mxGeometry relative="1" as="geometry" />
        </mxCell>
        <mxCell id="PiPbr1PfLSAp2xPkQz8O-39" value="&lt;p style=&quot;line-height: 70%;&quot;&gt;&lt;span style=&quot;font-size: 10px;&quot;&gt;Шаблон&lt;br&gt;&quot;Цены&quot;&lt;br&gt;заполненный&lt;/span&gt;&lt;/p&gt;" style="shape=mxgraph.bpmn.data;labelPosition=center;verticalLabelPosition=bottom;align=center;verticalAlign=top;size=15;html=1;spacing=1;" vertex="1" parent="2b4e8129b02d487f-3">
          <mxGeometry x="870" y="60" width="30" height="40" as="geometry" />
        </mxCell>
        <mxCell id="PiPbr1PfLSAp2xPkQz8O-40" style="edgeStyle=orthogonalEdgeStyle;rounded=0;orthogonalLoop=1;jettySize=auto;html=1;entryX=0;entryY=0.5;entryDx=0;entryDy=0;entryPerimeter=0;" edge="1" parent="2b4e8129b02d487f-3" source="PiPbr1PfLSAp2xPkQz8O-37" target="PiPbr1PfLSAp2xPkQz8O-39">
          <mxGeometry relative="1" as="geometry" />
        </mxCell>
        <mxCell id="PiPbr1PfLSAp2xPkQz8O-14" style="edgeStyle=orthogonalEdgeStyle;rounded=0;orthogonalLoop=1;jettySize=auto;html=1;entryX=0.5;entryY=0;entryDx=0;entryDy=0;entryPerimeter=0;" edge="1" parent="2b4e8129b02d487f-1" source="PiPbr1PfLSAp2xPkQz8O-11" target="PiPbr1PfLSAp2xPkQz8O-13">
          <mxGeometry relative="1" as="geometry" />
        </mxCell>
        <mxCell id="PiPbr1PfLSAp2xPkQz8O-15" value="Маркетплейс" style="swimlane;startSize=20;horizontal=0;html=1;whiteSpace=wrap;" vertex="1" parent="1">
          <mxGeometry x="30" y="425" width="1030" height="120" as="geometry" />
        </mxCell>
        <mxCell id="PiPbr1PfLSAp2xPkQz8O-16" value="Модерация и проверка" style="points=[[0.25,0,0],[0.5,0,0],[0.75,0,0],[1,0.25,0],[1,0.5,0],[1,0.75,0],[0.75,1,0],[0.5,1,0],[0.25,1,0],[0,0.75,0],[0,0.5,0],[0,0.25,0]];shape=mxgraph.bpmn.task;whiteSpace=wrap;rectStyle=rounded;size=10;html=1;container=1;expand=0;collapsible=0;taskMarker=abstract;" vertex="1" parent="PiPbr1PfLSAp2xPkQz8O-15">
          <mxGeometry x="407.5" y="30" width="120" height="60" as="geometry" />
        </mxCell>
        <mxCell id="PiPbr1PfLSAp2xPkQz8O-41" value="шаблон&lt;br&gt;&lt;div style=&quot;line-height: 100%;&quot;&gt;&lt;span style=&quot;background-color: initial;&quot;&gt;&quot;Прайс-лист&quot;&lt;/span&gt;&lt;/div&gt;" style="shape=mxgraph.bpmn.data;labelPosition=center;verticalLabelPosition=bottom;align=center;verticalAlign=top;size=15;html=1;" vertex="1" parent="PiPbr1PfLSAp2xPkQz8O-15">
          <mxGeometry x="720" y="40" width="30" height="40" as="geometry" />
        </mxCell>
        <mxCell id="PiPbr1PfLSAp2xPkQz8O-17" value="" style="dashed=1;dashPattern=8 4;endArrow=blockThin;endFill=1;startArrow=oval;startFill=0;endSize=6;startSize=4;html=1;rounded=0;entryX=0.25;entryY=0;entryDx=0;entryDy=0;entryPerimeter=0;exitX=0.25;exitY=1;exitDx=0;exitDy=0;exitPerimeter=0;" edge="1" parent="1" source="PiPbr1PfLSAp2xPkQz8O-13" target="PiPbr1PfLSAp2xPkQz8O-16">
          <mxGeometry width="160" relative="1" as="geometry">
            <mxPoint x="450" y="400" as="sourcePoint" />
            <mxPoint x="610" y="400" as="targetPoint" />
          </mxGeometry>
        </mxCell>
        <mxCell id="PiPbr1PfLSAp2xPkQz8O-18" value="&lt;font style=&quot;font-size: 7px;&quot;&gt;Файл с&lt;br style=&quot;font-size: 7px;&quot;&gt;корректировками&lt;br style=&quot;font-size: 7px;&quot;&gt;и артикулами&lt;br style=&quot;font-size: 7px;&quot;&gt;площадки&lt;/font&gt;&lt;div style=&quot;font-size: 7px;&quot;&gt;&lt;br style=&quot;font-size: 7px;&quot;&gt;&lt;/div&gt;" style="dashed=1;dashPattern=8 4;endArrow=blockThin;endFill=1;startArrow=oval;startFill=0;endSize=6;startSize=4;html=1;rounded=0;exitX=0.75;exitY=0;exitDx=0;exitDy=0;exitPerimeter=0;entryX=0.75;entryY=1;entryDx=0;entryDy=0;entryPerimeter=0;fontSize=7;labelBackgroundColor=none;" edge="1" parent="1" source="PiPbr1PfLSAp2xPkQz8O-16" target="PiPbr1PfLSAp2xPkQz8O-13">
          <mxGeometry x="0.619" y="-32" width="160" relative="1" as="geometry">
            <mxPoint x="478" y="360" as="sourcePoint" />
            <mxPoint x="520" y="360" as="targetPoint" />
            <mxPoint x="1" as="offset" />
          </mxGeometry>
        </mxCell>
        <mxCell id="PiPbr1PfLSAp2xPkQz8O-42" value="&lt;font style=&quot;font-size: 7px;&quot;&gt;Файл с&lt;br style=&quot;font-size: 7px;&quot;&gt;корректировками&lt;br style=&quot;font-size: 7px;&quot;&gt;и артикулами&lt;br style=&quot;font-size: 7px;&quot;&gt;площадки&lt;/font&gt;&lt;div style=&quot;font-size: 7px;&quot;&gt;&lt;br style=&quot;font-size: 7px;&quot;&gt;&lt;/div&gt;" style="dashed=1;dashPattern=8 4;endArrow=blockThin;endFill=1;startArrow=oval;startFill=0;endSize=6;startSize=4;html=1;rounded=0;exitX=0;exitY=0.75;exitDx=0;exitDy=0;exitPerimeter=0;entryX=0;entryY=0.5;entryDx=0;entryDy=0;entryPerimeter=0;fontSize=7;labelBackgroundColor=none;" edge="1" parent="1" source="PiPbr1PfLSAp2xPkQz8O-37" target="PiPbr1PfLSAp2xPkQz8O-41">
          <mxGeometry x="0.619" y="-32" width="160" relative="1" as="geometry">
            <mxPoint x="640" y="475" as="sourcePoint" />
            <mxPoint x="640" y="370" as="targetPoint" />
            <mxPoint x="1" as="offset" />
            <Array as="points">
              <mxPoint x="720" y="335" />
              <mxPoint x="720" y="410" />
              <mxPoint x="720" y="485" />
            </Array>
          </mxGeometry>
        </mxCell>
      </root>
    </mxGraphModel>
  </diagram>
</mxfile>
